<?xml version="1.0" standalone="no"?>
<!DOCTYPE svg PUBLIC "-//W3C//DTD SVG 1.1//EN" "http://www.w3.org/Graphics/SVG/1.1/DTD/svg11.dtd" >
<svg xmlns="http://www.w3.org/2000/svg">
<metadata></metadata>
<defs>
<font id="BaseTwelveMedium" horiz-adv-x="1024" >
<font-face units-per-em="2048" ascent="1536" descent="-512" />
<missing-glyph horiz-adv-x="512" />
<glyph unicode="&#xfb01;" horiz-adv-x="1193" d="M-39 -512l193 1212h-86v324h137l12 74q31 198 153 317t275 119q44 0 96.5 -15.5t83.5 -39.5l-57 -367h-68l-118 141l-35 -229h631l-136 -854v-170h-368l110 700h-288l-166 -1042v-170h-369zM907 1366q11 63 63 108.5t115 45.5q64 0 102 -45.5t27 -108.5 q-9 -63 -61.5 -108.5t-116.5 -45.5q-63 0 -100.5 45.5t-28.5 108.5z" />
<glyph unicode="&#xfb02;" horiz-adv-x="1193" d="M-39 -512l193 1212h-86v324h137l12 74q31 198 153 317t275 119l615 2l-218 -1366v-170h-368l198 1253h-290l-35 -229h155v-324h-206l-166 -1042v-170h-369z" />
<glyph horiz-adv-x="0" />
<glyph horiz-adv-x="2048" />
<glyph unicode=" "  horiz-adv-x="512" />
<glyph unicode="&#x09;" horiz-adv-x="512" />
<glyph unicode="&#xa0;" horiz-adv-x="512" />
<glyph unicode="!" horiz-adv-x="681" d="M68 141q10 70 67.5 120t126.5 50q70 0 112.5 -49.5t31.5 -120.5q-11 -69 -69 -118.5t-128 -49.5q-69 0 -110.5 49.5t-30.5 118.5zM180 444l21 922h461l-277 -922h-205z" />
<glyph unicode="&#x22;" horiz-adv-x="854" d="M143 1364h809l-245 -666h-158l-27 512l-188 -512h-156z" />
<glyph unicode="#" horiz-adv-x="1193" d="M150 240v323h186l39 240h-154v323h205l39 240h170l-37 -240h170l37 240h172l-39 -240h135v-323h-186l-39 -240h153v-323h-204l-37 -240h-170l37 240h-170l-39 -240h-170l37 240h-135zM508 563h170l37 240h-170z" />
<glyph unicode="$" d="M84 276l76 252q73 -41 160 -66.5t141 -25.5q31 0 53 14t25 37q4 22 -16.5 38t-56 27.5t-79 24t-85 35.5t-73.5 55.5t-46.5 89t-2.5 130.5q18 118 121.5 205.5t239.5 111.5l53 332h170l-51 -332q69 -12 125.5 -45t119.5 -96l-118 -225q-42 32 -109 62t-123 30 q-70 0 -78 -43q-3 -20 18.5 -36t57 -29t78.5 -27.5t84 -38t73.5 -55.5t47.5 -84t4 -119q-18 -115 -116.5 -204.5t-227.5 -123.5l-55 -340h-170l51 328q-164 12 -291 118z" />
<glyph unicode="%" horiz-adv-x="1536" d="M154 1075q20 127 124 217t230 90q128 0 204 -90t56 -217q-20 -126 -125 -216.5t-231 -90.5q-127 0 -202.5 90.5t-55.5 216.5zM211 0l852 1366h274l-854 -1366h-272zM367 1077q-6 -38 17.5 -66t61.5 -28t70.5 28t38.5 66t-17 66t-61 28t-71 -28t-39 -66zM797 291 q22 127 125.5 217t230.5 90q126 0 203 -90.5t55 -216.5q-20 -127 -124 -217t-232 -90q-126 0 -202 90t-56 217zM1010 293q-6 -38 18 -66t62 -28t70 28t38 66t-17 65t-61 27t-70 -27t-40 -65z" />
<glyph unicode="&#x26;" d="M43 426q26 174 172 307q-72 108 -51 240q28 170 173 289.5t329 119.5q116 0 212 -49t160 -123l-149 -211q-3 2 -31 20.5t-42.5 26.5t-41.5 21t-54.5 19t-55.5 6q-58 0 -102.5 -32t-53.5 -87q-8 -57 26 -97t91 -40h114l-45 -273h-131q-57 0 -102.5 -40t-54.5 -97 q-8 -56 25.5 -95.5t88.5 -39.5q52 0 97 32.5t55 94.5l8 41h260l-74 -459h-176l-37 43q-115 -59 -233 -59q-121 0 -214.5 59t-137.5 161t-25 222z" />
<glyph unicode="'" horiz-adv-x="512" d="M160 1364h438l-246 -666h-157z" />
<glyph unicode="(" horiz-adv-x="854" d="M150 682q19 117 69 237t115.5 221t146 195.5t157.5 165t153 125.5l198 -141q-72 -56 -146.5 -136t-147 -183t-127 -230.5t-74.5 -253.5q-17 -136 -4.5 -254.5t53.5 -226t89.5 -186t102.5 -134.5l-243 -143q-74 70 -140.5 166.5t-122 218t-78.5 268.5t-1 291z" />
<glyph unicode=")" horiz-adv-x="854" d="M-109 -119q73 56 148 136t147.5 183t127 229.5t73.5 252.5q18 136 5.5 255t-53.5 227t-89.5 186.5t-102.5 134.5l244 141q74 -70 140.5 -166t121.5 -217t77.5 -268.5t0.5 -292.5q-22 -144 -91 -291t-163 -268.5t-191.5 -218t-193.5 -166.5z" />
<glyph unicode="*" horiz-adv-x="1193" d="M117 969l90 186l325 -63l101 340h198l-8 -340l348 63l31 -186l-336 -148l119 -303l-178 -112l-199 245l-274 -245l-144 112l213 303z" />
<glyph unicode="+" horiz-adv-x="1366" d="M139 393l51 324h342l56 350h340l-54 -350h340l-51 -324h-342l-55 -350h-340l53 350h-340z" />
<glyph unicode="," horiz-adv-x="854" d="M-16 -344q221 137 260 358q-64 18 -98.5 71t-24.5 122q13 76 80 132t145 56q67 0 112.5 -35.5t61.5 -86t8 -103.5q-30 -190 -167.5 -352t-333.5 -252z" />
<glyph unicode="-" d="M139 393l51 324h684l-53 -324h-682z" />
<glyph unicode="." horiz-adv-x="681" d="M37 188q15 85 84 145t153 60q85 0 136 -60.5t36 -144.5q-12 -85 -81 -144.5t-154 -59.5t-135.5 59.5t-38.5 144.5z" />
<glyph unicode="/" horiz-adv-x="854" d="M-86 0l772 1366h283l-772 -1366h-283z" />
<glyph unicode="0" d="M60.5 463.5q1.5 103.5 17.5 218.5q23 147 70 271.5t116 221.5t164.5 152t208.5 55t192 -55.5t116 -151t46.5 -222.5t-16.5 -271q-23 -146 -70 -270.5t-116 -221t-165 -151.5t-208 -55q-90 0 -159 36t-110 100t-64.5 152t-22 191.5zM424.5 438.5q8.5 -98.5 48.5 -98.5 t76.5 95t60.5 247q25 146 18 245t-48 99q-39 0 -77.5 -97t-62.5 -247q-24 -145 -15.5 -243.5z" />
<glyph unicode="1" d="M129 0v324h170l74 458l-156 -43l-61 201l549 442h102l-166 -1058h170v-324h-682z" />
<glyph unicode="2" d="M-49 0l12 82l553 668q88 109 102 188q9 57 -24 97t-90 40t-104 -40t-56 -97l-12 -84h-262q4 16 14 84q19 121 95.5 223.5t189 161.5t233.5 59q185 0 296.5 -130t82.5 -314q-16 -107 -76 -196.5t-157 -178.5l-256 -239h415v-324h-956z" />
<glyph unicode="3" d="M-25 111l140 262q48 -36 113.5 -59t113.5 -23q75 0 122 38.5t56 96.5q9 57 -24.5 97t-89.5 40h-181l45 273h162q57 0 103 40t55 97q7 55 -30 87t-95 32q-35 0 -74.5 -8t-59.5 -14.5t-63.5 -23t-48.5 -18.5l-69 217q113 63 217.5 100t218.5 37q168 0 271 -120.5t77 -288.5 q-21 -134 -127 -240q104 -135 78 -307q-19 -120 -96 -222t-190 -161t-234 -59q-85 0 -162 21t-119 43t-109 63z" />
<glyph unicode="4" d="M-18 256l36 238l644 888h247l-125 -802h154v-324h-205l-14 -86v-170h-369l41 256h-409zM262 580h180l50 317z" />
<glyph unicode="5" d="M16 244l205 155q24 -47 68 -77.5t90 -30.5q57 0 104 39.5t56 95.5q8 57 -26 97t-91 40h-279l129 803h717l-51 -326h-406l-26 -172q12 2 16 2q91 0 168 -35t128 -94.5t74 -141.5t9 -173q-19 -120 -96 -222t-190 -161t-234 -59q-134 0 -233 71.5t-132 188.5z" />
<glyph unicode="6" d="M37 426q12 78 46 140t110 167l475 633h397l-383 -514q133 -42 205 -159.5t49 -266.5q-19 -120 -96 -222t-190 -161t-234 -59t-215 59t-138.5 161t-25.5 222zM401 426q-9 -54 10 -94.5t54 -40.5t66 40t40 95q9 57 -9.5 97t-53.5 40t-66.5 -40t-40.5 -97z" />
<glyph unicode="7" d="M72 0l544 1040h-446v326h938l-14 -82l-670 -1284h-352z" />
<glyph unicode="8" d="M35 406q13 90 65.5 171.5t130.5 139.5q-85 112 -61 266q26 165 163.5 282t303.5 117t267 -117t75 -282q-24 -151 -145 -266q58 -58 84.5 -139.5t13.5 -171.5q-28 -174 -179.5 -298t-336.5 -124t-297.5 124t-83.5 298zM397 406q-9 -55 10.5 -96.5t53.5 -41.5q35 0 67 41 t41 97q8 56 -11 95.5t-54 39.5t-66.5 -39.5t-40.5 -95.5zM487 983q-7 -55 12.5 -96t53.5 -41q35 0 66 40.5t40 96.5q9 57 -9.5 97t-53.5 40q-36 0 -68 -40t-41 -97z" />
<glyph unicode="9" d="M-12 0l385 514q-134 42 -205.5 159t-48.5 265q19 121 95.5 223.5t189 161.5t233.5 59q185 0 296.5 -130t82.5 -314q-11 -76 -44.5 -137t-111.5 -168l-475 -633h-397zM481 938q-9 -55 10 -95t54 -40q34 0 66.5 40t39.5 95q9 56 -9 96.5t-52 40.5q-36 0 -68 -40.5 t-41 -96.5z" />
<glyph unicode=":" horiz-adv-x="681" d="M37 188q15 85 84 145t153 60q85 0 136 -60.5t36 -144.5q-12 -85 -81 -144.5t-154 -59.5t-135.5 59.5t-38.5 144.5zM125 733q14 85 83 145t154 60t135.5 -60t37.5 -145q-12 -84 -82.5 -144.5t-155.5 -60.5q-84 0 -134 60t-38 145z" />
<glyph unicode=";" horiz-adv-x="854" d="M-16 -344q221 137 260 358q-64 18 -98.5 71t-24.5 122q13 76 80 132t145 56q67 0 112.5 -35.5t61.5 -86t8 -103.5q-30 -190 -167.5 -352t-333.5 -252zM197 733q14 85 83 145t154 60t135.5 -60t36.5 -145q-12 -84 -82 -144.5t-155 -60.5q-84 0 -134 60t-38 145z" />
<glyph unicode="&#x3c;" d="M90 600l844 612l125 -141l-465 -473l313 -469l-168 -147z" />
<glyph unicode="=" d="M100 154l52 323h684l-52 -323h-684zM180 649l51 324h682l-51 -324h-682z" />
<glyph unicode="&#x3e;" d="M-29 129l459 469l-311 473l168 141l651 -612l-846 -618z" />
<glyph unicode="?" d="M70 854q4 16 14 84q19 121 95.5 223.5t189 161.5t233.5 59q185 0 296.5 -130t82.5 -314q-16 -109 -78.5 -187t-181.5 -155l-268 -176l-107 125l170 205q88 109 102 188q9 57 -24 97t-90 40t-104 -40t-56 -97l-12 -84h-262zM238 141q10 70 68.5 120t127.5 50 q70 0 111 -49.5t30 -120.5q-11 -69 -68.5 -118.5t-127.5 -49.5q-69 0 -110.5 49.5t-30.5 118.5z" />
<glyph unicode="@" horiz-adv-x="1536" d="M115 637q24 150 105.5 288t198 238t264 159.5t298.5 59.5q127 0 231 -41t172.5 -114.5t97.5 -180.5t9 -233q-16 -104 -67.5 -204t-119 -171.5t-146 -115t-146.5 -43.5q-51 0 -93.5 22t-62.5 53q-36 -32 -99.5 -53.5t-109.5 -21.5q-96 0 -157 56.5t-72 149t22 209.5 q55 173 184 291.5t273 118.5q92 0 154 -72l59 62h111l-189 -586q-12 -40 7 -57t42 -17q70 0 154 116t108 259q16 96 -6.5 175.5t-73.5 130t-122.5 78.5t-155.5 28q-116 0 -228.5 -48t-199 -127t-146.5 -185t-77 -218q-38 -231 76 -370.5t331 -139.5q73 0 136 12t122 38.5 t99 49.5t102 64l53 -125q-306 -190 -553 -190q-190 0 -334 85.5t-211.5 236t-39.5 333.5zM655.5 545.5q5.5 -60.5 46.5 -60.5q46 0 89.5 56t74.5 153q31 95 25 149t-49 54t-90 -61.5t-74 -147.5q-28 -82 -22.5 -142.5z" />
<glyph unicode="A" d="M-178 0l713 1382h204l275 -1382h-332l-25 135h-434l-67 -135h-334zM377 442h219l-59 312z" />
<glyph unicode="B" horiz-adv-x="1193" d="M27 0l188 1194v172h551q113 0 199.5 -56t126.5 -152q28 -66 27 -140q0 -33 -5 -68q-18 -119 -94 -213q87 -101 87 -237q0 -34 -5 -70q-29 -178 -176 -304t-326 -126h-573zM418 324h217q44 0 81 31t44 75q1 8 1 16q0 35 -21 61q-26 32 -70 32h-217zM504 862h166 q37 0 67.5 25.5t36.5 62.5q1 8 1 15q1 27 -17 49q-22 26 -60 26h-166z" />
<glyph unicode="C" d="M78 682q31 195 122 354t227.5 252.5t291.5 93.5q105 0 187.5 -43.5t132 -109t79.5 -152.5l-190 -159q-32 65 -87 109t-114 44q-105 0 -182.5 -111t-104.5 -278q-8 -63 -8 -119q0 -39 4 -75q10 -86 54 -140.5t114 -54.5q109 0 246 156l143 -158q-193 -307 -495 -307 q-155 0 -262 94q-108 94 -148 252q-23 91 -23 193q0 76 13 159z" />
<glyph unicode="D" horiz-adv-x="1193" d="M27 0l188 1194v172h426q124 0 229 -54.5t172.5 -146t95.5 -217.5q16 -71 16 -147q0 -58 -9 -119q-21 -138 -89.5 -264.5t-165.5 -217.5t-219 -145.5t-247 -54.5h-397zM418 324h49q107 0 199.5 105t115.5 253q7 44 7 85q0 95 -41 169q-59 104 -166 104h-50z" />
<glyph unicode="E" d="M27 0l188 1194v172h795v-326h-478l-32 -194h444v-326h-495l-31 -196h461v-324h-852z" />
<glyph unicode="F" horiz-adv-x="854" d="M27 0l188 1194v172h713v-326h-396l-32 -194h295v-326h-346l-54 -348v-172h-368z" />
<glyph unicode="G" horiz-adv-x="1193" d="M78 682q31 195 124 354t234.5 252.5t302.5 93.5t265 -85t151 -220l-201 -159q-36 65 -94.5 109t-120.5 44q-110 0 -191 -111t-108 -278q-8 -59 -8 -112q0 -43 6 -82q11 -87 57.5 -141t120.5 -54q50 0 91 20l24 148h-137v323h528l-123 -784h-170l-41 51q-116 -67 -270 -67 q-161 0 -273 93.5t-155 252.5q-24 92 -24 198q0 74 12 154z" />
<glyph unicode="H" horiz-adv-x="1193" d="M27 0l188 1194v172h369l-82 -520h272l55 348v172h369l-188 -1196v-170h-369l82 522h-274l-54 -352v-170h-368z" />
<glyph unicode="I" horiz-adv-x="854" d="M43 0v324h170l115 716h-138v326h650v-326h-170l-115 -716h137v-324h-649z" />
<glyph unicode="J" horiz-adv-x="681" d="M-158 92l80 240q64 -43 135 -43q67 0 117 48.5t66 149.5l112 707v172h369l-152 -942q-15 -96 -48 -172.5t-76 -126t-96.5 -82t-107.5 -46t-112 -13.5q-83 0 -160.5 30t-126.5 78z" />
<glyph unicode="K" d="M27 0l188 1194v172h369l-76 -485l309 485h381l-430 -666l231 -700h-381l-169 518l-54 -348v-170h-368z" />
<glyph unicode="L" horiz-adv-x="854" d="M27 0l188 1194v172h369l-166 -1042h362v-324h-753z" />
<glyph unicode="M" horiz-adv-x="1366" d="M27 0l188 1194v172h297l211 -516l377 516h268l-188 -1196v-170h-334l102 643l-262 -352h-102l-148 352l-76 -473v-170h-333z" />
<glyph unicode="N" horiz-adv-x="1193" d="M27 0l188 1194v172h221l355 -631l73 459v172h334l-217 -1366h-195l-354 631l-72 -461v-170h-333z" />
<glyph unicode="O" d="M60 464q2 104 18 218q23 147 70 271.5t116 221.5t164.5 152t208.5 55t192 -55.5t116 -151t47 -222.5q3 -34 3 -69q0 -96 -20 -202q-23 -146 -70 -270.5t-116 -221t-165 -151.5t-208 -55q-90 0 -159 36t-110 100t-65 152q-22 83 -22 179v13zM424 438q8 -98 48.5 -98t77 95 t60.5 247q20 114 20 199q0 24 -2 46q-7 99 -48 99q-39 0 -77.5 -97t-62.5 -247q-18 -107 -18 -189q0 -29 2 -55z" />
<glyph unicode="P" d="M27 0l188 1194v172h403q138 0 245 -69t157 -187q35 -83 35 -176q0 -39 -6 -80q-34 -212 -207.5 -362t-384.5 -150h-35l-27 -172v-170h-368zM473 666h16q77 0 142.5 56t75.5 132q2 16 2 30q-1 57 -37 101q-46 55 -123 55h-17z" />
<glyph unicode="Q" d="M78 682q23 147 70 271.5t116 221.5t164.5 152t208.5 55t192 -55.5t116 -151t47 -222.5q2 -34 2 -69q0 -97 -19 -202q-24 -158 -75.5 -290t-134 -232t-187.5 -144v-18q0 -84 26 -125q28 -45 101 -45q71 0 219 109l45 -232q-97 -86 -176 -124t-172 -38q-186 0 -272 113 q-78 102 -78 309q0 22 1 45q-139 62 -186 243q-26 99 -26 218q0 99 18 211zM424 438q9 -98 49 -98t76.5 95t60.5 247q20 114 20 199q0 24 -2 46q-7 99 -48 99q-39 0 -77.5 -97t-62.5 -247q-18 -107 -18 -189q0 -29 2 -55z" />
<glyph unicode="R" d="M27 0l188 1194v172h385q139 0 246 -69q106 -69 156 -187q34 -82 34 -173q0 -41 -6 -83q-15 -104 -70.5 -199.5t-140.5 -167.5l162 -487h-381l-113 344q-14 -2 -49 -2h-16l-27 -172v-170h-368zM473 666q76 0 140.5 55.5t76.5 132.5q2 16 2 30q0 57 -36 101q-46 55 -124 55 z" />
<glyph unicode="S" d="M2 166l94 295q182 -160 361 -160q41 0 80.5 21t46.5 63q1 7 1 13q1 28 -21 54q-26 30 -72 54.5t-101.5 50.5t-110 62t-96.5 82t-62 118q-11 42 -11 90q0 34 6 72q18 113 99.5 206t198 144t240.5 51q111 0 213.5 -51.5t175.5 -146.5l-159 -252q-46 47 -87.5 76.5t-79.5 41 t-60.5 14.5t-55.5 3q-44 0 -80.5 -22.5t-42.5 -55.5q-1 -7 -1 -13q0 -28 22 -53q26 -30 71.5 -53.5t101.5 -49.5t110.5 -61.5t96.5 -80.5t62 -116q11 -41 12 -88q0 -34 -6 -71q-20 -127 -107.5 -224.5t-204.5 -146t-241 -48.5q-110 0 -213.5 46.5t-179.5 135.5z" />
<glyph unicode="T" horiz-adv-x="854" d="M78 1040v326h893v-326h-301l-140 -870v-170h-368l166 1040h-250z" />
<glyph unicode="U" d="M59 426l150 940h340l-148 -940q-3 -14 -3 -27q0 -29 14 -47q20 -28 57 -28t65 27t37 75l150 940h340l-148 -940q-20 -125 -93.5 -227t-180 -158.5t-223.5 -56.5q-179 0 -283 126q-81 98 -81 234q0 39 7 82z" />
<glyph unicode="V" d="M39 1366h367l137 -584l323 584h365l-764 -1382h-102z" />
<glyph unicode="W" horiz-adv-x="1536" d="M39 1366h367l137 -584l102 187l-94 397h367l137 -584l323 584h365l-764 -1382h-102l-123 520l-287 -520h-102z" />
<glyph unicode="X" d="M-94 0l446 700l-213 666h355l94 -297l188 297h354l-423 -664l223 -702h-352l-107 332l-211 -332h-354z" />
<glyph unicode="Y" horiz-adv-x="854" d="M37 1366h371l88 -338l196 338h369l-469 -805l-62 -391v-170h-368l90 561z" />
<glyph unicode="Z" horiz-adv-x="854" d="M-59 0l491 1040h-293v326h803l-487 -1042h288v-324h-802z" />
<glyph unicode="[" horiz-adv-x="854" d="M23 -342l311 1964h512l-51 -326h-172l-207 -1312h170l-51 -326h-512z" />
<glyph unicode="\" horiz-adv-x="854" d="M166 1366h213l338 -1366h-213z" />
<glyph unicode="]" horiz-adv-x="854" d="M23 -342l51 326h170l209 1312h-170l51 326h512l-311 -1964h-512z" />
<glyph unicode="^" horiz-adv-x="1193" d="M178 922l461 487h137l309 -487l-170 -148l-270 236l-346 -236z" />
<glyph unicode="_" horiz-adv-x="854" d="M-121 -170l27 170h854l-27 -170h-854z" />
<glyph unicode="`" d="M346 1550l295 254l297 -491l-162 -139z" />
<glyph unicode="a" d="M55 512q21 145 88 265.5t166.5 191.5t210.5 71q132 0 213 -100l96 84h179l-162 -1024h-178l-70 84q-114 -100 -246 -100q-111 0 -187.5 71.5t-104.5 191.5q-15 66 -15 139q0 61 10 126zM416 512q-6 -32 -5 -60q1 -36 9 -66q16 -52 51 -52t69 52.5t46 125.5q4 27 4 51 q0 41 -11 75q-17 54 -51 54q-36 0 -68.5 -53t-43.5 -127z" />
<glyph unicode="b" d="M-8 0l217 1366v170h369l-86 -532q68 36 155 36q111 0 187 -71.5t104 -191.5q16 -69 17 -146q0 -57 -9 -119q-23 -145 -90.5 -265.5t-167.5 -191.5t-211 -71q-130 0 -211 100l-96 -84h-178zM416 512q-6 -31 -6 -59q0 -36 10 -66q17 -53 51 -53q35 0 69 52.5t46 125.5 q4 29 4 55q0 40 -10 72q-17 53 -52 53t-68 -53t-44 -127z" />
<glyph unicode="c" horiz-adv-x="854" d="M53 512q17 108 67.5 205t124.5 168.5t170.5 113t200.5 41.5q77 0 128 -22.5t110 -71.5l-49 -313q-16 5 -47.5 22.5t-65.5 28t-78 10.5q-78 0 -132.5 -52.5t-65.5 -129.5q-4 -21 -3 -39q-1 -53 27 -91q38 -52 119 -52q23 0 45.5 3t37 6t36.5 12t29 12t30.5 14.5t26.5 13.5 l-49 -311q-68 -50 -128.5 -73t-140.5 -23q-137 0 -236 71q-100 71 -140 191q-26 77 -25 164q0 49 8 102z" />
<glyph unicode="d" d="M55 512q21 145 88 265.5t166.5 191.5t210.5 71q83 0 142 -36l59 362v170h369l-244 -1536h-178l-70 84q-114 -100 -246 -100q-111 0 -187.5 71.5t-104.5 191.5q-15 66 -15 139q0 61 10 126zM416 512q-6 -32 -5 -60q1 -36 9 -66q16 -52 51 -52t69 52.5t46 125.5q4 27 4 51 q0 41 -11 75q-17 54 -51 54q-36 0 -68.5 -53t-43.5 -127z" />
<glyph unicode="e" d="M53 512q17 108 67.5 205t124.5 168.5t170.5 113t200.5 41.5q155 0 246.5 -93t91.5 -218q0 -63 -25.5 -122t-75.5 -107.5t-133 -77.5t-188 -29h-116q10 -121 157 -121q124 0 201 47l72 -169q-169 -166 -400 -166q-137 0 -236 71q-100 71 -140 191q-26 77 -25 164 q0 49 8 102zM446 625h70q69 0 101 20t32 47q0 21 -20 36t-49 15q-37 0 -76 -31.5t-58 -86.5z" />
<glyph unicode="f" horiz-adv-x="681" d="M-39 -512l193 1212h-86v324h137l12 74q31 198 153 317t275 119q44 0 96.5 -15.5t83.5 -39.5l-57 -367h-68l-118 141l-35 -229h174v-324h-225l-166 -1042v-170h-369z" />
<glyph unicode="g" d="M-39 -262l176 139q36 -48 76.5 -73t99.5 -25q68 0 119 51t68 150l8 43q-71 -39 -156 -39q-111 0 -187.5 71.5t-104.5 191.5q-15 66 -15 139q0 61 10 126q21 145 88 265.5t166.5 191.5t210.5 71q132 0 213 -100l96 84h179l-162 -1026q-26 -160 -105.5 -277.5t-188.5 -175 t-233 -57.5q-128 0 -223.5 67.5t-134.5 182.5zM416 512q-6 -32 -6 -60q0 -36 10 -66q16 -52 51 -52t69 52.5t46 125.5q4 27 4 51q0 42 -11 75q-17 54 -51 54q-36 0 -68.5 -53t-43.5 -127z" />
<glyph unicode="h" d="M-8 0l217 1366v170h369q-91 -561 -91 -563q91 67 199 67q268 0 268 -290q0 -62 -12 -136l-70 -444v-170h-368l88 565q5 30 5 52q-1 29 -9 46q-14 29 -51 29q-65 0 -105 -67l-72 -455v-170h-368z" />
<glyph unicode="i" horiz-adv-x="512" d="M-8 0l135 854v170h369l-136 -854v-170h-368zM225 1366q11 63 63 108.5t115 45.5t101 -46q30 -36 30 -83q0 -12 -2 -25q-11 -63 -63 -108.5t-115 -45.5t-101 46q-30 36 -30 83q0 12 2 25z" />
<glyph unicode="j" horiz-adv-x="512" d="M-276 -414l40 260q20 -21 35.5 -28.5t46.5 -7.5q57 0 93.5 43t50.5 141l137 860v170h369l-181 -1126q-30 -194 -130.5 -302t-241.5 -108q-140 0 -219 98zM225 1366q11 63 63 108.5t115 45.5t101 -46q30 -36 30 -83q0 -12 -2 -25q-11 -63 -63 -108.5t-115 -45.5t-101 46 q-30 36 -30 83q0 12 2 25z" />
<glyph unicode="k" d="M-8 0l217 1366v170h369l-148 -924l301 412h379l-367 -496l222 -528h-379l-185 436l-41 -266v-170h-368z" />
<glyph unicode="l" horiz-adv-x="512" d="M-8 0l217 1366v170h369l-218 -1366v-170h-368z" />
<glyph unicode="m" horiz-adv-x="1536" d="M-8 0l162 1024h178l88 -106q56 57 128 89.5t138 32.5q178 0 238 -129q64 65 137 97t137 32q268 0 268 -290q0 -62 -12 -136l-70 -444v-170h-368l88 565q5 30 5 52q-1 29 -9 46q-14 29 -51 29q-65 0 -105 -67l-72 -455v-170h-368l88 565q5 30 5 52q-1 29 -9 46 q-14 29 -51 29q-65 0 -105 -67l-72 -455v-170h-368z" />
<glyph unicode="n" d="M-8 0l162 1024h178l88 -106q56 57 128 89.5t138 32.5q268 0 268 -290q0 -62 -12 -136l-70 -444v-170h-368l88 565q5 30 5 52q-1 29 -9 46q-14 29 -51 29q-65 0 -105 -67l-72 -455v-170h-368z" />
<glyph unicode="o" d="M53 512q34 222 184.5 375t346.5 153q130 0 222 -72q92 -71 128 -191q23 -75 22 -159q0 -51 -8 -106q-34 -222 -185 -375t-347 -153q-130 0 -222 72q-92 71 -128 191q-22 74 -22 157q0 52 9 108zM416 512q-6 -31 -6 -58q0 -36 10 -66q17 -54 51 -54q35 0 69 53t46 125 q4 29 4 55q0 40 -10 72q-17 53 -52 53t-68 -53t-44 -127z" />
<glyph unicode="p" d="M-90 -512l244 1536h178l69 -84q114 100 246 100q111 0 187 -71.5t104 -191.5q17 -69 17 -146q0 -57 -9 -119q-23 -145 -90.5 -265.5t-167.5 -191.5t-211 -71q-82 0 -141 36l-57 -362v-170h-369zM416 512q-6 -31 -6 -58q0 -36 10 -66q17 -54 51 -54q35 0 69 53t46 125 q4 29 4 55q0 40 -10 72q-17 53 -52 53t-68 -53t-44 -127z" />
<glyph unicode="q" d="M55 512q21 145 88 265.5t166.5 191.5t210.5 71q132 0 213 -100l96 84h179l-217 -1366v-170h-369l86 532q-71 -36 -156 -36q-111 0 -187.5 71.5t-104.5 191.5q-15 66 -15 139q0 61 10 126zM416 512q-6 -32 -6 -60q0 -35 10 -65q16 -53 51 -53t69 53t46 125q4 27 4 51 q0 42 -11 75q-17 54 -51 54q-36 0 -68.5 -53t-43.5 -127z" />
<glyph unicode="r" horiz-adv-x="681" d="M-8 0l162 1024h178l88 -106q97 122 211 122q56 0 92 -18l-88 -547h-68l-133 160l-74 -465v-170h-368z" />
<glyph unicode="s" horiz-adv-x="854" d="M-29 106l76 252q73 -41 160 -66.5t141 -25.5q32 0 53.5 13.5t24.5 37.5q4 22 -16.5 38t-56 27.5t-78 24t-84 35.5t-73.5 56q-34 32 -48 88q-8 31 -7 68q0 30 5 63q23 137 153.5 230t290.5 93q106 0 181 -34t153 -113l-119 -225q-42 33 -109 62.5t-122 29.5q-70 0 -76 -43 q-3 -21 17.5 -37t56 -28.5t78 -27.5t84 -38.5t73.5 -55t47 -83.5q9 -30 9 -65q0 -26 -5 -54q-23 -144 -163.5 -244t-301.5 -100q-201 0 -344 122z" />
<glyph unicode="t" horiz-adv-x="681" d="M86 700v185l412 481h102l-53 -342h102v-324h-153l-39 -233q-5 -34 -5 -61q0 -58 24 -84q22 -24 54 -24q18 0 39 7l-43 -276q-85 -45 -180 -45q-142 0 -207 107q-44 73 -44 188q0 53 9 114l50 307h-68z" />
<glyph unicode="u" d="M57 410l70 444v170h369l-90 -565q-4 -28 -4 -49q0 -32 9 -49q15 -29 52 -29q61 0 104 67l72 455v170h369l-162 -1024h-178l-88 106q-56 -57 -129 -89.5t-138 -32.5q-163 0 -227 104q-41 68 -41 183q0 62 12 139z" />
<glyph unicode="v" horiz-adv-x="854" d="M-27 1024h351l100 -455l244 455h350l-586 -1040h-205z" />
<glyph unicode="w" horiz-adv-x="1366" d="M-27 1024h351l100 -455l117 222l-56 233h351l100 -455l244 455h350l-586 -1040h-205l-92 381l-215 -381h-205z" />
<glyph unicode="x" d="M-78 0l381 516l-215 508h395l58 -233l133 233h397l-375 -508l215 -516h-395l-61 242l-138 -242h-395z" />
<glyph unicode="y" horiz-adv-x="854" d="M-197 -512l379 674q1 0 -51.5 215.5t-104.5 430.5l-53 216h351l100 -455l244 455h350l-864 -1536h-351z" />
<glyph unicode="z" horiz-adv-x="854" d="M-51 0l381 700h-228v324h768l-381 -700h236v-324h-776z" />
<glyph unicode="{" d="M117 682l284 207q24 139 69.5 251.5t114 200t137 150.5t167.5 135l201 -141q-126 -96 -199 -193t-117 -256l-29 -186l-227 -168l174 -166l-28 -186q-6 -159 36 -257t136 -192l-246 -143q-42 40 -73.5 75t-64 79.5t-55 87.5t-41 98t-26.5 114t-7.5 131.5t11.5 153.5z" />
<glyph unicode="|" horiz-adv-x="512" d="M-6 -512l328 2048h170l-326 -2048h-172z" />
<glyph unicode="}" d="M-37 -119q125 94 198.5 192t117.5 257l28 186l228 166l-175 168l29 186q6 159 -35.5 256t-134.5 193l244 141q42 -40 73.5 -74.5t64.5 -78.5t55 -87.5t41 -98.5t27 -113.5t7.5 -131t-12.5 -153.5l217 -207l-285 -205q-23 -139 -68 -251.5t-114 -200.5t-137.5 -151 t-167.5 -136z" />
<glyph unicode="~" d="M31 324q20 124 55 223.5t75.5 161.5t89 103.5t92 58t85.5 16.5q29 0 66 -21t66 -45.5t63.5 -45.5t60.5 -21q24 0 59.5 26.5t59.5 87.5h194q-21 -129 -55.5 -229.5t-74 -162.5t-88 -102t-93.5 -55.5t-94 -15.5q-26 0 -63 21.5t-67.5 47t-64 47t-53.5 21.5q-22 0 -58.5 -28 t-60.5 -88h-194z" />
<glyph unicode="&#xa1;" horiz-adv-x="681" d="M-76 -369l275 922h204l-18 -922h-461zM180 856q10 69 68 118.5t127 49.5q70 0 112 -49.5t31 -118.5q-10 -70 -67.5 -120t-126.5 -50t-111.5 50t-32.5 120z" />
<glyph unicode="&#xa2;" d="M129 682q29 177 141 315t269 189l55 350h170l-51 -324q69 -3 118 -26t101 -70l-49 -311q-16 5 -47.5 22.5t-65.5 28t-78 10.5q-78 0 -133 -52.5t-67 -131.5q-11 -78 27.5 -130t115.5 -52q34 0 68 7t49.5 12.5t51 22.5t40.5 19l-49 -309q-65 -48 -121.5 -71.5 t-128.5 -26.5l-51 -324h-170l53 348q-139 52 -206.5 190.5t-41.5 313.5z" />
<glyph unicode="&#xa3;" d="M94 0v324h154l33 204h-121v326h172l12 74q30 196 152.5 316t277.5 120q43 0 94 -16t84 -41l-57 -367h-70l-116 141l-37 -227h157v-326h-208l-31 -204h344v-324h-840z" />
<glyph unicode="&#xa4;" horiz-adv-x="1366" d="M51 186l182 158q-20 85 -6 168q12 92 60 170l-133 158l282 239l131 -157q78 34 174 34q92 0 164 -34l180 157l205 -241l-184 -156q21 -76 8 -170q-16 -94 -61 -168l118 -139l-278 -244l-119 141q-81 -34 -174 -34q-92 0 -164 34l-180 -159zM483 512q-12 -77 35 -132.5 t123 -55.5t140.5 55.5t76.5 132.5t-35 132.5t-123 55.5q-77 0 -142 -56t-75 -132z" />
<glyph unicode="&#xa5;" d="M106 342v324h203l-186 700h371l86 -338l196 338h371l-408 -700h152v-324h-248l-27 -172v-170h-368l55 342h-197z" />
<glyph unicode="&#xa6;" horiz-adv-x="512" d="M-6 -512l145 905h170l-143 -905h-172zM180 649l142 887h170l-142 -887h-170z" />
<glyph unicode="&#xa7;" horiz-adv-x="854" d="M-29 106l76 252q73 -41 160 -66.5t141 -25.5q32 0 53.5 13.5t24.5 37.5q4 22 -16.5 38t-56 27.5t-78 24t-84 35.5t-74 55.5t-47 89t-2.5 130.5q15 88 75 160q-39 67 -22 182q14 90 81 164.5t164 115.5t201 41q105 0 179.5 -33.5t152.5 -111.5l-117 -225 q-47 33 -112.5 62.5t-120.5 29.5q-70 0 -76 -43q-3 -21 18 -37t56 -28.5t78 -27.5t84.5 -38.5t74 -55t47.5 -83.5t5 -119q-15 -91 -84 -170q44 -70 28 -172q-23 -144 -163.5 -244t-301.5 -100q-201 0 -344 122zM356 778q-8 -57 39.5 -99t147.5 -85q2 6 2 10q10 62 -39 104 t-148 76z" />
<glyph unicode="&#xa8;" horiz-adv-x="1193" d="M334 1331q9 66 61.5 112t118.5 46q65 0 104 -46t29 -112q-12 -65 -65 -111t-117 -46q-66 0 -104.5 46t-26.5 111zM784 1331q9 66 62 112t119 46q65 0 104 -46t29 -112q-12 -65 -65.5 -111t-117.5 -46q-66 0 -104.5 46t-26.5 111z" />
<glyph unicode="&#xa9;" horiz-adv-x="1536" d="M82 682q22 142 98.5 272t185 223.5t247 149t280.5 55.5t262.5 -55.5t199.5 -149t113.5 -223t12.5 -272.5q-22 -142 -97.5 -271t-184 -222.5t-247 -149t-280.5 -55.5t-263 55.5t-199.5 149t-114 222.5t-13.5 271zM244 682q-22 -144 30.5 -266.5t164 -194t255.5 -71.5 q145 0 279.5 71.5t225.5 194t114 266.5q17 109 -9.5 208t-87 170.5t-152.5 114t-200 42.5q-109 0 -214.5 -42.5t-188 -114t-141 -170.5t-76.5 -208zM459 682q25 154 140 260.5t267 106.5q79 0 150 -49.5t112 -135.5l-149 -116q-55 92 -139 92q-52 0 -93 -44t-53 -114 q-9 -69 18.5 -112.5t78.5 -43.5q87 0 170 95l110 -115q-67 -91 -152.5 -140t-166.5 -49q-102 0 -175 50t-103 133t-15 182z" />
<glyph unicode="&#xaa;" d="M199 938q30 188 139.5 316t251.5 128q107 0 178 -84l82 70h149l-137 -860h-149l-60 72q-94 -84 -204 -84q-140 0 -210 128t-40 314zM500 938q-9 -62 5 -106t44 -44q29 0 57 44.5t37 105.5q10 61 -4 106.5t-43 45.5q-30 0 -57.5 -44.5t-38.5 -107.5z" />
<glyph unicode="&#xab;" horiz-adv-x="1705" d="M129 600l862 625l111 -127l-490 -500l328 -498l-147 -131zM754 600l860 625l110 -127l-489 -500l328 -498l-150 -131z" />
<glyph unicode="&#xac;" horiz-adv-x="1193" d="M182 561v293h885l-82 -520h-311l37 227h-529z" />
<glyph unicode="&#xad;" d="M139 393l51 324h684l-53 -324h-682z" />
<glyph unicode="&#xae;" horiz-adv-x="1536" d="M82 682q22 142 98.5 272t185 223.5t247 149t280.5 55.5t262.5 -55.5t199.5 -149t113.5 -223t12.5 -272.5q-22 -142 -97.5 -271t-184 -222.5t-247 -149t-280.5 -55.5t-263 55.5t-199.5 149t-114 222.5t-13.5 271zM244 682q-22 -144 30.5 -266.5t164 -194t255.5 -71.5 q145 0 279.5 71.5t225.5 194t114 266.5q17 109 -9.5 208t-87 170.5t-152.5 114t-200 42.5q-109 0 -214.5 -42.5t-188 -114t-141 -170.5t-76.5 -208zM438 342l109 682h297q118 0 194.5 -75.5t59.5 -180.5q-10 -67 -53 -125.5t-105 -93.5l131 -207h-268l-101 160l-24 -160 h-240zM731 682h33q34 0 64 26t34 60q6 35 -15.5 60.5t-55.5 25.5h-33z" />
<glyph unicode="&#xaf;" horiz-adv-x="1193" d="M365 1280l53 342h684l-53 -342h-684z" />
<glyph unicode="&#xb0;" horiz-adv-x="854" d="M160 1044q23 140 137.5 239t253.5 99q140 0 224 -99.5t61 -238.5q-22 -139 -137 -238t-253 -99q-140 0 -224 99t-62 238zM377 1044q-7 -49 22.5 -84.5t79.5 -35.5q51 0 93 35.5t49 84.5q7 51 -23 86t-80 35q-51 0 -92.5 -35t-48.5 -86z" />
<glyph unicode="&#xb1;" horiz-adv-x="1366" d="M102 0v324h367l31 188h-316v324h367l55 350h342l-55 -350h315v-324h-366l-31 -188h315v-324h-1024z" />
<glyph unicode="&#xb2;" horiz-adv-x="854" d="M72 506l22 145l332 340q38 40 49.5 53.5t25.5 35t17 40.5q7 38 -16.5 66t-61.5 28h-153l26 162h324q106 0 169 -75t46 -181q-6 -46 -33 -96.5t-71 -89.5l-281 -258h315l-28 -170h-682z" />
<glyph unicode="&#xb3;" horiz-adv-x="854" d="M115 510l24 162h180q38 0 70.5 28t38.5 66t-17 66t-61 28h-137l27 162h135q38 0 71 28t39 66q5 39 -18 66.5t-61 27.5h-181l27 162h348q107 0 170.5 -75t46.5 -181q-19 -107 -98 -174q58 -71 43 -176q-17 -106 -104 -181t-193 -75h-350z" />
<glyph unicode="&#xb4;" d="M367 1313l450 491l215 -254l-549 -376z" />
<glyph unicode="&#xb5;" d="M-90 -512l217 1366v170h369l-90 -565q-10 -69 5 -98t52 -29q61 0 104 67l72 455v170h369l-162 -1024h-178l-88 106q-53 -53 -120 -85t-130 -37l-51 -326v-170h-369z" />
<glyph unicode="&#xb6;" horiz-adv-x="1366" d="M240 1024q22 141 138 241.5t257 100.5h665v-326h-137l-164 -1040h-239l166 1040h-103l-166 -1040h-239l108 682q-141 0 -224.5 100.5t-61.5 241.5z" />
<glyph unicode="&#xb7;" horiz-adv-x="681" d="M188 684q9 70 67 120t128 50t111 -49.5t32 -120.5q-12 -69 -69 -118.5t-127 -49.5q-69 0 -111.5 49.5t-30.5 118.5z" />
<glyph unicode="&#xb8;" horiz-adv-x="1193" d="M139 -473l72 211q77 -72 156 -72q42 0 75 16.5t37 43.5q4 25 -24.5 42t-69.5 17h-90l111 350h243l-92 -184q67 -34 101 -94t24 -131q-19 -107 -118 -181.5t-226 -74.5q-48 0 -96 12.5t-73.5 25.5t-29.5 19z" />
<glyph unicode="&#xb9;" d="M160 512l24 170h170l58 356l-197 -69l-27 71l398 342h221l-111 -700h170l-24 -170h-682z" />
<glyph unicode="&#xba;" d="M190 938q31 188 157 316t290 128q109 0 186.5 -59.5t108.5 -161t12 -223.5q-30 -186 -155.5 -314t-290.5 -128q-166 0 -252 128t-56 314zM496 938q-9 -62 4.5 -106t42.5 -44q31 0 59 44t37 106q9 64 -5 108t-44 44q-29 0 -57 -44.5t-37 -107.5z" />
<glyph unicode="&#xbb;" horiz-adv-x="1705" d="M-14 100l485 498l-328 500l152 127l663 -625l-862 -631zM610 100l484 498l-328 500l152 127l663 -625l-864 -631z" />
<glyph unicode="&#xbc;" horiz-adv-x="2048" d="M125 512l25 170h172l55 356l-197 -69l-26 71l397 342h223l-112 -700h172l-27 -170h-682zM584 0l772 1366h213l-772 -1366h-213zM1073 170l17 98l548 602h263l-82 -528h170l-27 -172h-172l-27 -170h-342l29 170h-377zM1317 342h160l32 211z" />
<glyph unicode="&#xbd;" horiz-adv-x="2048" d="M125 512l25 170h172l55 356l-197 -69l-26 71l397 342h223l-112 -700h172l-27 -170h-682zM584 0l772 1366h213l-772 -1366h-213zM1130 4l23 146l330 339q36 36 51.5 52.5t28 37t14.5 39.5q6 38 -17 66.5t-61 28.5h-153l24 161h326q105 0 167.5 -75t47.5 -181 q-19 -108 -105 -186l-282 -258h315l-27 -170h-682z" />
<glyph unicode="&#xbe;" horiz-adv-x="2048" d="M115 510l24 162h180q38 0 70.5 28t38.5 66t-17 66t-61 28h-137l27 162h135q38 0 71 28t39 66q5 39 -18 66.5t-61 27.5h-181l27 162h348q107 0 170.5 -75t46.5 -181q-19 -107 -98 -174q58 -71 43 -176q-17 -106 -104 -181t-193 -75h-350zM498 0l772 1366h213l-770 -1366 h-215zM989 170l15 98l548 602h265l-84 -528h170l-27 -172h-170l-29 -170h-340l27 170h-375zM1233 342h158l32 211z" />
<glyph unicode="&#xbf;" d="M14 76q16 111 78.5 187.5t181.5 154.5l269 176l108 -125l-170 -205q-90 -108 -104 -188q-9 -57 24.5 -97t90.5 -40t103.5 40t55.5 97l13 84h262q-5 -16 -15 -84q-29 -184 -181 -314.5t-337 -130.5q-121 0 -215.5 59.5t-139 162t-24.5 223.5zM426 872q9 69 67.5 118.5 t127.5 49.5t110.5 -49.5t32.5 -118.5q-12 -70 -70 -120t-127 -50q-70 0 -111.5 49.5t-29.5 120.5z" />
<glyph unicode="&#xc0;" d="M-178 0l713 1382h204l275 -1382h-332l-25 135h-434l-67 -135h-334zM240 1853l295 254l297 -491l-162 -139zM377 442h219l-59 312z" />
<glyph unicode="&#xc1;" d="M-178 0l713 1382h204l275 -1382h-332l-25 135h-434l-67 -135h-334zM377 442h219l-59 312zM510 1614l450 491l215 -254l-549 -376z" />
<glyph unicode="&#xc2;" d="M-178 0l713 1382h204l275 -1382h-332l-25 135h-434l-67 -135h-334zM245 1620l400 419h127l266 -419l-162 -140l-223 197l-291 -197zM377 442h219l-59 312z" />
<glyph unicode="&#xc3;" d="M-178 0l713 1382h204l275 -1382h-332l-25 135h-434l-67 -135h-334zM207 1430q34 217 123 337.5t176 120.5q29 0 66 -20t66 -43.5t64 -43.5t62 -20q22 0 51.5 35.5t54.5 110.5h160q-19 -120 -53.5 -211.5t-76.5 -145t-87.5 -80t-91.5 -26.5q-33 0 -82.5 33t-96 66.5 t-71.5 33.5q-19 0 -50.5 -39t-53.5 -108h-160zM377 442h219l-59 312z" />
<glyph unicode="&#xc4;" d="M-178 0l713 1382h204l275 -1382h-332l-25 135h-434l-67 -135h-334zM254 1638q9 66 61.5 112t118.5 46q65 0 104 -46t29 -112q-12 -65 -65 -111t-117 -46q-66 0 -104.5 46t-26.5 111zM377 442h219l-59 312zM704 1638q9 66 62 112t119 46q65 0 104 -46t29 -112 q-12 -65 -65.5 -111t-117.5 -46q-66 0 -104.5 46t-26.5 111z" />
<glyph unicode="&#xc5;" d="M-178 0l713 1382h204l275 -1382h-332l-25 135h-434l-67 -135h-334zM375 1708q20 128 123.5 217.5t230.5 89.5q128 0 204 -90t56 -217q-22 -129 -125 -218t-231 -89q-129 0 -204.5 89t-53.5 218zM377 442h219l-59 312zM569 1708q-7 -46 21 -79.5t74 -33.5t84.5 33.5 t46.5 79.5q6 46 -22.5 79.5t-74.5 33.5t-84.5 -33.5t-44.5 -79.5z" />
<glyph unicode="&#xc6;" horiz-adv-x="1366" d="M-8 0l147 938q20 125 93.5 227.5t180.5 159.5t224 57q70 0 117 -16h581v-326h-325l-31 -194h289v-326h-340l-31 -196h307v-324h-700l55 358h-170l-55 -358h-342zM440 682h170l41 256q7 49 -11.5 75.5t-55.5 26.5q-36 0 -66 -27t-37 -75z" />
<glyph unicode="&#xc7;" d="M78 682q31 195 122 354t227.5 252.5t291.5 93.5q105 0 187.5 -43.5t132 -109t79.5 -152.5l-190 -159q-32 65 -87 109t-114 44q-105 0 -182.5 -111t-104.5 -278q-14 -108 -4 -194.5t54 -140.5t114 -54q109 0 246 156l143 -158q-173 -277 -436 -305l-18 -35q69 -34 103 -94 t22 -131q-17 -106 -116.5 -181t-225.5 -75q-49 0 -97.5 12.5t-73.5 25t-30 19.5l72 211q77 -72 157 -72q42 0 75.5 16.5t37.5 43.5q3 26 -25 42.5t-69 16.5h-90l69 223q-162 61 -235 245.5t-35 428.5z" />
<glyph unicode="&#xc8;" d="M27 0l188 1194v172h795v-326h-478l-32 -194h444v-326h-495l-31 -196h461v-324h-852zM252 1872l295 254l297 -492l-162 -139z" />
<glyph unicode="&#xc9;" d="M27 0l188 1194v172h795v-326h-478l-32 -194h444v-326h-495l-31 -196h461v-324h-852zM453 1614l450 491l215 -254l-549 -376z" />
<glyph unicode="&#xca;" d="M27 0l188 1194v172h795v-326h-478l-32 -194h444v-326h-495l-31 -196h461v-324h-852zM238 1630l399 420h127l266 -420l-162 -139l-223 197l-291 -197z" />
<glyph unicode="&#xcb;" d="M27 0l188 1194v172h795v-326h-478l-32 -194h444v-326h-495l-31 -196h461v-324h-852zM283 1638q9 66 61.5 112t118.5 46q65 0 104 -46t29 -112q-12 -65 -65 -111t-117 -46q-66 0 -104.5 46t-26.5 111zM733 1638q9 66 62 112t119 46q65 0 104 -46t29 -112 q-12 -65 -65.5 -111t-117.5 -46q-66 0 -104.5 46t-26.5 111z" />
<glyph unicode="&#xcc;" horiz-adv-x="854" d="M43 0v324h170l115 716h-138v326h650v-326h-170l-115 -716h137v-324h-649zM156 1853l295 254l297 -491l-162 -139z" />
<glyph unicode="&#xcd;" horiz-adv-x="854" d="M43 0v324h170l115 716h-138v326h650v-326h-170l-115 -716h137v-324h-649zM484 1626l450 491l215 -254l-549 -376z" />
<glyph unicode="&#xce;" horiz-adv-x="854" d="M43 0v324h170l115 716h-138v326h650v-326h-170l-115 -716h137v-324h-649zM150 1624l399 420h127l266 -420l-162 -139l-223 196l-291 -196z" />
<glyph unicode="&#xcf;" horiz-adv-x="854" d="M43 0v324h170l115 716h-138v326h650v-326h-170l-115 -716h137v-324h-649zM170 1638q9 66 61.5 112t118.5 46q65 0 104 -46t29 -112q-12 -65 -65 -111t-117 -46q-66 0 -104.5 46t-26.5 111zM620 1638q9 66 62 112t119 46q65 0 104 -46t29 -112q-12 -65 -65.5 -111 t-117.5 -46q-66 0 -104.5 46t-26.5 111z" />
<glyph unicode="&#xd0;" horiz-adv-x="1193" d="M-12 512l51 324h121l57 358v172h424q124 0 229 -54.5t172.5 -146t96 -218t6.5 -265.5q-21 -138 -89.5 -264.5t-165.5 -217.5t-219 -145.5t-247 -54.5h-397l82 512h-121zM418 324h49q107 0 199.5 105t115.5 253q25 149 -34 253.5t-166 104.5h-50l-32 -204h137l-51 -324 h-137z" />
<glyph unicode="&#xd1;" horiz-adv-x="1193" d="M27 0l188 1194v172h221l355 -631l73 459v172h334l-217 -1366h-195l-354 631l-72 -461v-170h-333zM313 1423q18 112 53 203t77 145t85.5 82.5t83.5 28.5q29 0 66 -20t66 -43.5t64 -43.5t62 -20q22 0 52 35.5t55 109.5h159q-19 -120 -53.5 -211.5t-76.5 -145t-87.5 -80 t-91.5 -26.5q-33 0 -82.5 33.5t-96 67t-71.5 33.5q-19 0 -50.5 -39.5t-53.5 -108.5h-160z" />
<glyph unicode="&#xd2;" d="M60.5 463.5q1.5 103.5 17.5 218.5q23 147 70 271.5t116 221.5t164.5 152t208.5 55t192 -55.5t116 -151t46.5 -222.5t-16.5 -271q-23 -146 -70 -270.5t-116 -221t-165 -151.5t-208 -55q-90 0 -159 36t-110 100t-64.5 152t-22 191.5zM209 1872l295 254l297 -491l-162 -139z M424.5 438.5q8.5 -98.5 48.5 -98.5t76.5 95t60.5 247q25 146 18 245t-48 99q-39 0 -77.5 -97t-62.5 -247q-24 -145 -15.5 -243.5z" />
<glyph unicode="&#xd3;" d="M60.5 463.5q1.5 103.5 17.5 218.5q23 147 70 271.5t116 221.5t164.5 152t208.5 55t192 -55.5t116 -151t46.5 -222.5t-16.5 -271q-23 -146 -70 -270.5t-116 -221t-165 -151.5t-208 -55q-90 0 -159 36t-110 100t-64.5 152t-22 191.5zM424.5 438.5q8.5 -98.5 48.5 -98.5 t76.5 95t60.5 247q25 146 18 245t-48 99q-39 0 -77.5 -97t-62.5 -247q-24 -145 -15.5 -243.5zM555 1637l450 491l215 -254l-549 -376z" />
<glyph unicode="&#xd4;" d="M60.5 463.5q1.5 103.5 17.5 218.5q23 147 70 271.5t116 221.5t164.5 152t208.5 55t192 -55.5t116 -151t46.5 -222.5t-16.5 -271q-23 -146 -70 -270.5t-116 -221t-165 -151.5t-208 -55q-90 0 -159 36t-110 100t-64.5 152t-22 191.5zM266 1638l400 420h127l266 -420 l-162 -139l-223 197l-291 -197zM424.5 438.5q8.5 -98.5 48.5 -98.5t76.5 95t60.5 247q25 146 18 245t-48 99q-39 0 -77.5 -97t-62.5 -247q-24 -145 -15.5 -243.5z" />
<glyph unicode="&#xd5;" d="M60.5 463.5q1.5 103.5 17.5 218.5q23 147 70 271.5t116 221.5t164.5 152t208.5 55t192 -55.5t116 -151t46.5 -222.5t-16.5 -271q-23 -146 -70 -270.5t-116 -221t-165 -151.5t-208 -55q-90 0 -159 36t-110 100t-64.5 152t-22 191.5zM215 1423q18 112 53 203t77 145 t85.5 82.5t83.5 28.5q29 0 66 -20t66 -43.5t64 -43.5t62 -20q22 0 52 35.5t55 109.5h159q-19 -120 -53.5 -211.5t-76.5 -145t-87.5 -80t-91.5 -26.5q-33 0 -82.5 33.5t-96 67t-71.5 33.5q-19 0 -50.5 -39.5t-53.5 -108.5h-160zM424.5 438.5q8.5 -98.5 48.5 -98.5t76.5 95 t60.5 247q25 146 18 245t-48 99q-39 0 -77.5 -97t-62.5 -247q-24 -145 -15.5 -243.5z" />
<glyph unicode="&#xd6;" d="M60.5 463.5q1.5 103.5 17.5 218.5q23 147 70 271.5t116 221.5t164.5 152t208.5 55t192 -55.5t116 -151t46.5 -222.5t-16.5 -271q-23 -146 -70 -270.5t-116 -221t-165 -151.5t-208 -55q-90 0 -159 36t-110 100t-64.5 152t-22 191.5zM287 1638q9 66 61.5 112t118.5 46 q65 0 104 -46t29 -112q-12 -65 -65 -111t-117 -46q-66 0 -104.5 46t-26.5 111zM424.5 438.5q8.5 -98.5 48.5 -98.5t76.5 95t60.5 247q25 146 18 245t-48 99q-39 0 -77.5 -97t-62.5 -247q-24 -145 -15.5 -243.5zM737 1638q9 66 62 112t119 46q65 0 104 -46t29 -112 q-12 -65 -65.5 -111t-117.5 -46q-66 0 -104.5 46t-26.5 111z" />
<glyph unicode="&#xd7;" horiz-adv-x="1366" d="M156 313l280 242l-205 240l281 243l203 -243l278 243l205 -243l-280 -240l204 -242l-280 -241l-203 241l-279 -241z" />
<glyph unicode="&#xd8;" d="M-80 197l150 143q-19 159 8 342q23 147 70 271.5t116 221.5t164.5 152t208.5 55q219 0 305 -202l96 92l95 -103q-150 -141 -150 -143q24 -147 -8 -344q-23 -146 -70 -270.5t-116 -221t-165 -151.5t-208 -55q-218 0 -307 202l-93 -92zM424 487q0 -147 49 -147 q40 0 76.5 91t60.5 235zM444 700l187 179q0 147 -51 147q-37 0 -74.5 -92t-61.5 -234z" />
<glyph unicode="&#xd9;" d="M59 426l150 940h340l-148 -940q-9 -47 11.5 -74.5t56.5 -27.5q37 0 65 27t37 75l150 940h340l-148 -940q-20 -125 -93.5 -227t-180 -158.5t-223.5 -56.5q-179 0 -283 126t-74 316zM192 1867l295 254l297 -491l-162 -139z" />
<glyph unicode="&#xda;" d="M59 426l150 940h340l-148 -940q-9 -47 11.5 -74.5t56.5 -27.5q37 0 65 27t37 75l150 940h340l-148 -940q-20 -125 -93.5 -227t-180 -158.5t-223.5 -56.5q-179 0 -283 126t-74 316zM537 1626l450 491l215 -254l-549 -376z" />
<glyph unicode="&#xdb;" d="M59 426l150 940h340l-148 -940q-9 -47 11.5 -74.5t56.5 -27.5q37 0 65 27t37 75l150 940h340l-148 -940q-20 -125 -93.5 -227t-180 -158.5t-223.5 -56.5q-179 0 -283 126t-74 316zM233 1620l400 420h127l266 -420l-162 -139l-223 196l-291 -196z" />
<glyph unicode="&#xdc;" d="M59 426l150 940h340l-148 -940q-9 -47 11.5 -74.5t56.5 -27.5q37 0 65 27t37 75l150 940h340l-148 -940q-20 -125 -93.5 -227t-180 -158.5t-223.5 -56.5q-179 0 -283 126t-74 316zM281 1638q9 66 61.5 112t118.5 46q65 0 104 -46t29 -112q-12 -65 -65 -111t-117 -46 q-66 0 -104.5 46t-26.5 111zM731 1638q9 66 61.5 112t118.5 46q65 0 104 -46t29 -112q-12 -65 -65 -111t-117 -46q-66 0 -104.5 46t-26.5 111z" />
<glyph unicode="&#xdd;" horiz-adv-x="854" d="M37 1366h371l88 -338l196 338h369l-469 -805l-62 -391v-170h-368l90 561zM463 1635l450 491l215 -254l-549 -376z" />
<glyph unicode="&#xde;" d="M27 0l188 1194v172h369l-23 -139h35q138 0 245 -68.5t157 -186.5t28 -257q-22 -138 -109.5 -256t-216 -187t-266.5 -69h-35l-4 -33v-170h-368zM451 528h16q77 0 142 55.5t75 131.5q13 76 -33 132t-123 56h-18z" />
<glyph unicode="&#xdf;" d="M-8 0q149 946 149 950q28 172 170 294t312 122q113 0 199.5 -56t126.5 -151.5t22 -208.5q-18 -124 -107 -231q93 -124 66 -289q-28 -178 -174.5 -304t-325.5 -126h-6l51 324q44 0 81 31t44 75q6 45 -20.5 77t-71.5 32l51 323q39 0 70 25.5t35 62.5q6 37 -15.5 63.5 t-58.5 26.5q-38 0 -69.5 -26.5t-37.5 -63.5l-149 -950h-342z" />
<glyph unicode="&#xe0;" d="M55 512q21 145 88 265.5t166.5 191.5t210.5 71q132 0 213 -100l96 84h179l-162 -1024h-178l-70 84q-114 -100 -246 -100q-111 0 -187.5 71.5t-104.5 191.5t-5 265zM260 1550l295 254l297 -491l-162 -139zM416 512q-13 -73 3.5 -125.5t51.5 -52.5t69 52.5t46 125.5 q10 73 -7 126.5t-51 53.5q-36 0 -68.5 -53t-43.5 -127z" />
<glyph unicode="&#xe1;" d="M55 512q21 145 88 265.5t166.5 191.5t210.5 71q132 0 213 -100l96 84h179l-162 -1024h-178l-70 84q-114 -100 -246 -100q-111 0 -187.5 71.5t-104.5 191.5t-5 265zM416 512q-13 -73 3.5 -125.5t51.5 -52.5t69 52.5t46 125.5q10 73 -7 126.5t-51 53.5q-36 0 -68.5 -53 t-43.5 -127zM484 1313l450 491l215 -254l-549 -376z" />
<glyph unicode="&#xe2;" d="M55 512q21 145 88 265.5t166.5 191.5t210.5 71q132 0 213 -100l96 84h179l-162 -1024h-178l-70 84q-114 -100 -246 -100q-111 0 -187.5 71.5t-104.5 191.5t-5 265zM243 1307l400 419h127l266 -419l-162 -140l-223 197l-291 -197zM416 512q-13 -73 3.5 -125.5t51.5 -52.5 t69 52.5t46 125.5q10 73 -7 126.5t-51 53.5q-36 0 -68.5 -53t-43.5 -127z" />
<glyph unicode="&#xe3;" d="M55 512q21 145 88 265.5t166.5 191.5t210.5 71q132 0 213 -100l96 84h179l-162 -1024h-178l-70 84q-114 -100 -246 -100q-111 0 -187.5 71.5t-104.5 191.5t-5 265zM244 1116q18 112 53 203t77 145t85.5 82.5t83.5 28.5q37 0 84.5 -31.5t94 -63.5t79.5 -32q22 0 52 35.5 t55 109.5h159q-19 -120 -53.5 -211.5t-76.5 -145t-87.5 -80t-91.5 -26.5q-33 0 -82.5 33.5t-96 67t-71.5 33.5q-19 0 -50.5 -39.5t-53.5 -108.5h-160zM416 512q-13 -73 3.5 -125.5t51.5 -52.5t69 52.5t46 125.5q10 73 -7 126.5t-51 53.5q-36 0 -68.5 -53t-43.5 -127z" />
<glyph unicode="&#xe4;" d="M55 512q21 145 88 265.5t166.5 191.5t210.5 71q132 0 213 -100l96 84h179l-162 -1024h-178l-70 84q-114 -100 -246 -100q-111 0 -187.5 71.5t-104.5 191.5t-5 265zM264 1315q9 66 61.5 112t118.5 46q65 0 104.5 -46t29.5 -112q-12 -65 -65.5 -111.5t-117.5 -46.5 q-66 0 -104.5 46.5t-26.5 111.5zM416 512q-13 -73 3.5 -125.5t51.5 -52.5t69 52.5t46 125.5q10 73 -7 126.5t-51 53.5q-36 0 -68.5 -53t-43.5 -127zM715 1315q9 66 61.5 112t118.5 46q65 0 104 -46t29 -112q-12 -65 -65 -111.5t-117 -46.5q-66 0 -104.5 46.5t-26.5 111.5z " />
<glyph unicode="&#xe5;" d="M55 512q21 145 88 265.5t166.5 191.5t210.5 71q132 0 213 -100l96 84h179l-162 -1024h-178l-70 84q-114 -100 -246 -100q-111 0 -187.5 71.5t-104.5 191.5t-5 265zM348 1382q20 128 123.5 218t230.5 90q128 0 204.5 -90.5t56.5 -217.5q-22 -129 -125.5 -218t-231.5 -89 q-129 0 -204.5 89t-53.5 218zM416 512q-13 -73 3.5 -125.5t51.5 -52.5t69 52.5t46 125.5q10 73 -7 126.5t-51 53.5q-36 0 -68.5 -53t-43.5 -127zM543 1382q-7 -46 20.5 -79t73.5 -33t85 33t46 79q6 46 -22 79.5t-74 33.5t-84.5 -33.5t-44.5 -79.5z" />
<glyph unicode="&#xe6;" horiz-adv-x="1536" d="M-4 252q14 85 74 159t143 120.5t176.5 73t179.5 26.5h35q10 70 -12.5 95.5t-93.5 25.5q-50 0 -140.5 -31.5t-150.5 -69.5l-23 217q274 172 437 172q144 0 229 -82q132 82 278 82q155 0 246.5 -93t91.5 -218q0 -63 -25.5 -122t-75.5 -107.5t-133 -77.5t-188 -29h-116 q10 -121 157 -121q124 0 201 47l72 -169q-169 -166 -400 -166q-105 0 -189 44t-138 122q-81 -74 -181 -120t-200 -46q-139 0 -205.5 77.5t-48.5 190.5zM305 270q-8 -67 66 -67q57 0 113.5 55t74.5 148h-31q-31 0 -64.5 -7t-68 -21.5t-59.5 -42.5t-31 -65zM958 625h70 q69 0 101 20t32 47q0 21 -20 36t-49 15q-37 0 -76 -31.5t-58 -86.5z" />
<glyph unicode="&#xe7;" horiz-adv-x="854" d="M53 512q17 108 67.5 205t124.5 168.5t170.5 113t200.5 41.5q77 0 128 -22.5t110 -71.5l-49 -313q-16 5 -47.5 22.5t-65.5 28t-78 10.5q-78 0 -132.5 -52.5t-65.5 -129.5q-14 -77 24.5 -129.5t118.5 -52.5q23 0 45.5 3t37 6t36.5 12t29 12t30.5 14.5t26.5 13.5l-49 -311 q-81 -59 -152 -82l-24 -47q69 -34 103 -94t22 -131q-17 -106 -116.5 -181t-225.5 -75q-49 0 -97.5 12.5t-73.5 25t-30 19.5l72 211q77 -72 157 -72q42 0 75.5 16.5t37.5 43.5q3 26 -25 42.5t-69 16.5h-90l65 209q-160 38 -241 183t-50 335z" />
<glyph unicode="&#xe8;" d="M53 512q17 108 67.5 205t124.5 168.5t170.5 113t200.5 41.5q155 0 246.5 -93t91.5 -218q0 -63 -25.5 -122t-75.5 -107.5t-133 -77.5t-188 -29h-116q10 -121 157 -121q124 0 201 47l72 -169q-169 -166 -400 -166q-137 0 -236 71t-139.5 191.5t-17.5 265.5zM238 1550 l294 254l297 -491l-161 -139zM446 625h70q69 0 101 20t32 47q0 21 -20 36t-49 15q-37 0 -76 -31.5t-58 -86.5z" />
<glyph unicode="&#xe9;" d="M53 512q17 108 67.5 205t124.5 168.5t170.5 113t200.5 41.5q155 0 246.5 -93t91.5 -218q0 -63 -25.5 -122t-75.5 -107.5t-133 -77.5t-188 -29h-116q10 -121 157 -121q124 0 201 47l72 -169q-169 -166 -400 -166q-137 0 -236 71t-139.5 191.5t-17.5 265.5zM446 625h70 q69 0 101 20t32 47q0 21 -20 36t-49 15q-37 0 -76 -31.5t-58 -86.5zM486 1313l450 491l215 -254l-549 -376z" />
<glyph unicode="&#xea;" d="M53 512q17 108 67.5 205t124.5 168.5t170.5 113t200.5 41.5q155 0 246.5 -93t91.5 -218q0 -63 -25.5 -122t-75.5 -107.5t-133 -77.5t-188 -29h-116q10 -121 157 -121q124 0 201 47l72 -169q-169 -166 -400 -166q-137 0 -236 71t-139.5 191.5t-17.5 265.5zM235 1307 l400 419h127l266 -419l-162 -140l-223 197l-291 -197zM446 625h70q69 0 101 20t32 47q0 21 -20 36t-49 15q-37 0 -76 -31.5t-58 -86.5z" />
<glyph unicode="&#xeb;" d="M53 512q17 108 67.5 205t124.5 168.5t170.5 113t200.5 41.5q155 0 246.5 -93t91.5 -218q0 -63 -25.5 -122t-75.5 -107.5t-133 -77.5t-188 -29h-116q10 -121 157 -121q124 0 201 47l72 -169q-169 -166 -400 -166q-137 0 -236 71t-139.5 191.5t-17.5 265.5zM274 1315 q9 66 62 112t119 46q65 0 104 -46t29 -112q-12 -65 -65 -111.5t-117 -46.5q-66 0 -105 46.5t-27 111.5zM446 625h70q69 0 101 20t32 47q0 21 -20 36t-49 15q-37 0 -76 -31.5t-58 -86.5zM725 1315q9 66 61.5 112t118.5 46q65 0 104 -46t29 -112q-12 -65 -65 -111.5 t-117 -46.5q-66 0 -104.5 46.5t-26.5 111.5z" />
<glyph unicode="&#xec;" horiz-adv-x="512" d="M-18 1550l294 254l297 -491l-161 -139zM-8 0l162 1024h342l-162 -1024h-342z" />
<glyph unicode="&#xed;" horiz-adv-x="512" d="M-8 0l162 1024h342l-162 -1024h-342zM234 1313l450 491l215 -254l-549 -376z" />
<glyph unicode="&#xee;" horiz-adv-x="512" d="M-31 1307l400 419h127l266 -419l-162 -140l-223 197l-291 -197zM-8 0l162 1024h342l-162 -1024h-342z" />
<glyph unicode="&#xef;" horiz-adv-x="512" d="M-10 1315q9 66 61.5 112t118.5 46q65 0 104 -46t29 -112q-12 -65 -65 -111.5t-117 -46.5q-66 0 -104.5 46.5t-26.5 111.5zM-8 0l162 1024h342l-162 -1024h-342zM440 1315q9 66 62 112t119 46q65 0 104 -46t29 -112q-12 -65 -65.5 -111.5t-117.5 -46.5q-66 0 -104.5 46.5 t-26.5 111.5z" />
<glyph unicode="&#xf0;" d="M82 426q23 149 131.5 266.5t255.5 159.5l-43 98l-217 -65l43 272l78 25l-80 184h397l33 -78l268 84l-43 -272l-129 -39l144 -328q43 -103 57 -166t2 -141q-19 -120 -96 -222t-190 -161t-234 -59t-214.5 59t-137.5 161t-25 222zM446 426q-9 -55 9 -95t53 -40t67 40.5 t41 94.5q9 57 -10.5 97t-54.5 40t-66.5 -40t-38.5 -97z" />
<glyph unicode="&#xf1;" d="M-8 0l162 1024h178l88 -106q56 57 128 89.5t138 32.5q325 0 256 -426l-70 -444v-170h-368l88 565q11 69 -3.5 98t-51.5 29q-65 0 -105 -67l-72 -455v-170h-368zM227 1116q18 112 53 203t77 145t85.5 82.5t83.5 28.5q37 0 84.5 -31.5t94 -63.5t79.5 -32q22 0 52 35.5 t55 109.5h159q-19 -120 -53.5 -211.5t-76.5 -145t-87.5 -80t-91.5 -26.5q-33 0 -82.5 33.5t-96 67t-71.5 33.5q-19 0 -50.5 -39.5t-53.5 -108.5h-160z" />
<glyph unicode="&#xf2;" d="M53 512q34 222 184.5 375t346.5 153q130 0 221.5 -71.5t128 -191.5t14.5 -265q-34 -222 -185 -375t-347 -153q-130 0 -221.5 71.5t-128 191.5t-13.5 265zM238 1550l294 254l297 -491l-161 -139zM416 512q-13 -71 4 -124.5t51 -53.5q35 0 69 53t46 125q11 74 -6 127 t-52 53t-68 -53t-44 -127z" />
<glyph unicode="&#xf3;" d="M53 512q34 222 184.5 375t346.5 153q130 0 221.5 -71.5t128 -191.5t14.5 -265q-34 -222 -185 -375t-347 -153q-130 0 -221.5 71.5t-128 191.5t-13.5 265zM416 512q-13 -71 4 -124.5t51 -53.5q35 0 69 53t46 125q11 74 -6 127t-52 53t-68 -53t-44 -127zM476 1313l450 491 l215 -254l-549 -376z" />
<glyph unicode="&#xf4;" d="M53 512q34 222 184.5 375t346.5 153q130 0 221.5 -71.5t128 -191.5t14.5 -265q-34 -222 -185 -375t-347 -153q-130 0 -221.5 71.5t-128 191.5t-13.5 265zM229 1307l400 419h127l266 -419l-162 -140l-223 197l-291 -197zM416 512q-13 -71 4 -124.5t51 -53.5q35 0 69 53 t46 125q11 74 -6 127t-52 53t-68 -53t-44 -127z" />
<glyph unicode="&#xf5;" d="M53 512q34 222 184.5 375t346.5 153q130 0 221.5 -71.5t128 -191.5t14.5 -265q-34 -222 -185 -375t-347 -153q-130 0 -221.5 71.5t-128 191.5t-13.5 265zM225 1116q18 112 53 203t77 145t85.5 82.5t83.5 28.5q37 0 84.5 -31.5t94 -63.5t79.5 -32q22 0 52 35.5t55 109.5 h159q-19 -120 -53.5 -211.5t-76.5 -145t-87.5 -80t-91.5 -26.5q-33 0 -82.5 33.5t-96 67t-71.5 33.5q-19 0 -50.5 -39.5t-53.5 -108.5h-160zM416 512q-13 -71 4 -124.5t51 -53.5q35 0 69 53t46 125q11 74 -6 127t-52 53t-68 -53t-44 -127z" />
<glyph unicode="&#xf6;" d="M53 512q34 222 184.5 375t346.5 153q130 0 221.5 -71.5t128 -191.5t14.5 -265q-34 -222 -185 -375t-347 -153q-130 0 -221.5 71.5t-128 191.5t-13.5 265zM256 1315q9 66 61.5 112t118.5 46q65 0 104 -46t29 -112q-12 -65 -65 -111.5t-117 -46.5q-66 0 -104.5 46.5 t-26.5 111.5zM416 512q-13 -71 4 -124.5t51 -53.5q35 0 69 53t46 125q11 74 -6 127t-52 53t-68 -53t-44 -127zM707 1315q9 66 61.5 112t118.5 46q65 0 104 -46t29 -112q-12 -65 -65 -111.5t-117 -46.5q-66 0 -104.5 46.5t-26.5 111.5z" />
<glyph unicode="&#xf7;" d="M139 393l51 324h684l-53 -324h-682zM289 154q10 64 63 108.5t115 44.5q65 0 102 -44.5t27 -108.5q-11 -64 -62.5 -109t-115.5 -45q-63 0 -101 45.5t-28 108.5zM416 956q11 63 63 108.5t115 45.5q64 0 102 -45.5t27 -108.5q-9 -63 -61.5 -108t-116.5 -45q-63 0 -100.5 45 t-28.5 108z" />
<glyph unicode="&#xf8;" d="M-33 119l109 100q-49 134 -23 293q34 222 184.5 375t346.5 153q167 0 270 -116l90 84l86 -103l-106 -98q51 -130 24 -295q-34 -222 -185 -375t-347 -153q-168 0 -271 116l-90 -84zM416 512q-13 -71 4 -124.5t51 -53.5q35 0 69 53t46 125q11 74 -6 127t-52 53t-68 -53 t-44 -127z" />
<glyph unicode="&#xf9;" d="M57 410l70 444v170h369l-90 -565q-10 -69 5 -98t52 -29q61 0 104 67l72 455v170h369l-162 -1024h-178l-88 106q-56 -57 -129 -89.5t-138 -32.5q-163 0 -227 104.5t-29 321.5zM162 1550l295 254l297 -491l-162 -139z" />
<glyph unicode="&#xfa;" d="M57 410l70 444v170h369l-90 -565q-10 -69 5 -98t52 -29q61 0 104 67l72 455v170h369l-162 -1024h-178l-88 106q-56 -57 -129 -89.5t-138 -32.5q-163 0 -227 104.5t-29 321.5zM517 1313l450 491l215 -254l-549 -376z" />
<glyph unicode="&#xfb;" d="M57 410l70 444v170h369l-90 -565q-10 -69 5 -98t52 -29q61 0 104 67l72 455v170h369l-162 -1024h-178l-88 106q-56 -57 -129 -89.5t-138 -32.5q-163 0 -227 104.5t-29 321.5zM194 1307l400 419h127l266 -419l-162 -140l-223 197l-291 -197z" />
<glyph unicode="&#xfc;" d="M57 410l70 444v170h369l-90 -565q-10 -69 5 -98t52 -29q61 0 104 67l72 455v170h369l-162 -1024h-178l-88 106q-56 -57 -129 -89.5t-138 -32.5q-163 0 -227 104.5t-29 321.5zM219 1315q9 66 61.5 112t118.5 46q65 0 104 -46t29 -112q-12 -65 -65 -111.5t-117 -46.5 q-66 0 -104.5 46.5t-26.5 111.5zM670 1315q9 66 61.5 112t118.5 46q65 0 104 -46t29 -112q-12 -65 -65 -111.5t-117 -46.5q-66 0 -104.5 46.5t-26.5 111.5z" />
<glyph unicode="&#xfd;" horiz-adv-x="854" d="M-197 -512l379 674q1 0 -51.5 215.5t-104.5 430.5l-53 216h351l100 -455l244 455h350l-864 -1536h-351zM457 1313l450 491l215 -254l-549 -376z" />
<glyph unicode="&#xfe;" d="M-90 -512l299 1878v170h369l-86 -535q68 39 155 39q111 0 187 -71.5t104.5 -191.5t7.5 -265q-23 -145 -90.5 -265.5t-167.5 -191.5t-211 -71q-82 0 -141 36l-57 -362v-170h-369zM416 512q-13 -71 4 -124.5t51 -53.5q35 0 69 53t46 125q11 74 -6 127t-52 53t-68 -53 t-44 -127z" />
<glyph unicode="&#xff;" horiz-adv-x="854" d="M-197 -512l379 674q1 0 -51.5 215.5t-104.5 430.5l-53 216h351l100 -455l244 455h350l-864 -1536h-351zM174 1315q9 66 61.5 112t118.5 46q65 0 104 -46t29 -112q-12 -65 -65 -111t-117 -46q-66 0 -104.5 46t-26.5 111zM624 1315q9 66 62 112t119 46q65 0 104 -46 t29 -112q-12 -65 -65.5 -111t-117.5 -46q-66 0 -104.5 46t-26.5 111z" />
<glyph unicode="&#x152;" horiz-adv-x="1366" d="M60.5 463.5q1.5 103.5 17.5 218.5q23 147 70 271.5t116 221.5t164.5 152t208.5 55q67 0 117 -18v2h649l-51 -326h-308l-32 -194h307l-51 -326h-307l-31 -196h307l-51 -324h-647q-62 -16 -123 -16q-90 0 -159 36t-110 100t-64.5 152t-22 191.5zM424.5 438.5 q8.5 -98.5 48.5 -98.5t76.5 95t60.5 247q25 146 18 245t-48 99q-39 0 -77.5 -97t-62.5 -247q-24 -145 -15.5 -243.5z" />
<glyph unicode="&#x153;" horiz-adv-x="1536" d="M53 512q34 222 184.5 375t346.5 153q147 0 247 -94q137 94 297 94q155 0 246.5 -93t91.5 -218q0 -63 -25.5 -122t-75.5 -107.5t-133 -77.5t-188 -29h-116q10 -121 157 -121q124 0 201 47l72 -169q-169 -166 -400 -166q-156 0 -264 94q-127 -94 -278 -94 q-130 0 -221.5 71.5t-128 191.5t-13.5 265zM416 512q-13 -71 4 -124.5t51 -53.5q35 0 69 53t46 125q11 74 -6 127t-52 53t-68 -53t-44 -127zM958 625h70q69 0 101 20t32 47q0 21 -20 36t-49 15q-37 0 -76 -31.5t-58 -86.5z" />
<glyph unicode="&#x178;" horiz-adv-x="854" d="M37 1366h371l88 -338l196 338h369l-469 -805l-62 -391v-170h-368l90 561zM164 1638q9 66 61.5 112t118.5 46q65 0 104 -46t29 -112q-12 -65 -65 -111t-117 -46q-66 0 -104.5 46t-26.5 111zM614 1638q9 66 62 112t119 46q65 0 104 -46t29 -112q-12 -65 -65.5 -111 t-117.5 -46q-66 0 -104.5 46t-26.5 111z" />
<glyph unicode="&#x2c6;" horiz-adv-x="1193" d="M313 1307l400 419h127l266 -419l-162 -140l-223 197l-291 -197z" />
<glyph unicode="&#x2dc;" horiz-adv-x="1193" d="M305 1116q18 112 53 203t77 145t85.5 82.5t83.5 28.5q37 0 84.5 -31.5t94 -63.5t79.5 -32q22 0 52 35.5t55 109.5h159q-19 -120 -53.5 -211.5t-76.5 -145t-87.5 -80t-91.5 -26.5q-33 0 -82.5 33.5t-96 67t-71.5 33.5q-19 0 -50.5 -39.5t-53.5 -108.5h-160z" />
<glyph unicode="&#x2000;" horiz-adv-x="1064" />
<glyph unicode="&#x2001;" horiz-adv-x="2128" />
<glyph unicode="&#x2002;" horiz-adv-x="1064" />
<glyph unicode="&#x2003;" horiz-adv-x="2128" />
<glyph unicode="&#x2004;" horiz-adv-x="709" />
<glyph unicode="&#x2005;" horiz-adv-x="532" />
<glyph unicode="&#x2006;" horiz-adv-x="354" />
<glyph unicode="&#x2007;" horiz-adv-x="354" />
<glyph unicode="&#x2008;" horiz-adv-x="266" />
<glyph unicode="&#x2009;" horiz-adv-x="425" />
<glyph unicode="&#x200a;" horiz-adv-x="118" />
<glyph unicode="&#x2010;" d="M139 393l51 324h684l-53 -324h-682z" />
<glyph unicode="&#x2011;" d="M139 393l51 324h684l-53 -324h-682z" />
<glyph unicode="&#x2012;" d="M139 393l51 324h684l-53 -324h-682z" />
<glyph unicode="&#x2013;" horiz-adv-x="854" d="M-33 393l53 324h854l-53 -324h-854z" />
<glyph unicode="&#x2014;" horiz-adv-x="1193" d="M-33 393l53 324h1194l-51 -324h-1196z" />
<glyph unicode="&#x2018;" horiz-adv-x="681" d="M223 1155q15 85 85 156t169 71q80 0 129 -56t37 -132q-10 -69 -62.5 -123t-121.5 -72q-30 -223 149 -356l-71 -90q-169 90 -256.5 251.5t-57.5 350.5z" />
<glyph unicode="&#x2019;" horiz-adv-x="681" d="M127 643q221 137 260 356q-64 17 -98.5 71t-24.5 124q12 76 78.5 132t144.5 56q100 0 149 -71t36 -156q-30 -189 -168.5 -350.5t-335.5 -251.5z" />
<glyph unicode="&#x201a;" horiz-adv-x="681" d="M-43 -418q218 131 262 357q-65 18 -100 70.5t-23 121.5q12 77 79.5 134t146.5 57q98 0 146 -71t36 -157q-30 -190 -169 -352t-335 -250z" />
<glyph unicode="&#x201c;" horiz-adv-x="1193" d="M223 1155q15 85 85 156t169 71q80 0 129 -56t37 -132q-10 -69 -62.5 -123t-121.5 -72q-30 -223 149 -356l-71 -90q-169 90 -256.5 251.5t-57.5 350.5zM702 1155q13 85 84 156t170 71q78 0 127 -56t39 -132q-12 -70 -63.5 -123.5t-120.5 -71.5q-30 -222 147 -356l-71 -90 q-168 90 -255 251.5t-57 350.5z" />
<glyph unicode="&#x201d;" horiz-adv-x="1193" d="M127 643q221 137 260 356q-64 17 -98.5 71t-24.5 124q12 76 78.5 132t144.5 56q100 0 149 -71t36 -156q-30 -189 -168.5 -350.5t-335.5 -251.5zM604 643q219 134 262 356q-64 18 -99.5 72t-23.5 123q10 76 77 132t147 56q67 0 112.5 -36t61.5 -87t8 -104 q-30 -189 -168.5 -350.5t-335.5 -251.5z" />
<glyph unicode="&#x201e;" horiz-adv-x="1193" d="M-43 -418q218 131 262 357q-65 18 -100 70.5t-23 121.5q12 77 79.5 134t146.5 57q98 0 146 -71t36 -157q-30 -190 -169 -352t-335 -250zM436 -418q220 133 260 357q-64 18 -98.5 70.5t-24.5 121.5q12 77 79.5 134t146.5 57q67 0 112.5 -36.5t61.5 -87.5t8 -104 q-30 -190 -169 -352t-335 -250z" />
<glyph unicode="&#x2022;" d="M184 682q23 141 139.5 241.5t256.5 100.5q141 0 225 -100.5t61 -241.5q-22 -140 -137 -240t-256 -100t-226 100t-63 240z" />
<glyph unicode="&#x2026;" horiz-adv-x="2048" d="M37 188q15 85 84 145t153 60q85 0 136 -60.5t36 -144.5q-12 -85 -81 -144.5t-154 -59.5t-135.5 59.5t-38.5 144.5zM721 188q14 85 83 145t154 60t135.5 -60t36.5 -145q-13 -85 -82.5 -144.5t-154.5 -59.5t-135 59.5t-37 144.5zM1403 188q14 85 83 145t154 60t135.5 -60 t36.5 -145q-12 -84 -82 -144t-155 -60q-84 0 -134 59.5t-38 144.5z" />
<glyph unicode="&#x202f;" horiz-adv-x="425" />
<glyph unicode="&#x2039;" d="M90 600l844 612l125 -141l-465 -473l313 -469l-168 -147z" />
<glyph unicode="&#x203a;" d="M-29 129l459 469l-311 473l168 141l651 -612l-846 -618z" />
<glyph unicode="&#x205f;" horiz-adv-x="532" />
<glyph unicode="&#x2122;" horiz-adv-x="2048" d="M190 1075v291h717v-291h-215l-61 -393v-170h-336l90 563h-195zM944 512l107 682v172h317l143 -274l234 274h289l-107 -684v-170h-317l57 367l-231 -273l-144 273l-30 -197v-170h-318z" />
<glyph unicode="&#xe000;" d="M0 0v1024h1024v-1024h-1024z" />
</font>
</defs>
</svg>
